<svg width="300" height="300" viewBox="0 0 300 300" fill="none" xmlns="http://www.w3.org/2000/svg">
<path opacity="0.4" d="M134.375 30.625C143.125 23.25 157.25 23.25 165.75 30.625L185.5 47.5C189.25 50.625 196.375 53.25 201.375 53.25H222.625C235.875 53.25 246.75 64.125 246.75 77.375V98.625C246.75 103.625 249.375 110.625 252.5 114.375L269.375 134.125C276.75 142.875 276.75 157 269.375 165.5L252.5 185.25C249.375 189 246.75 196 246.75 201V222.25C246.75 235.5 235.875 246.375 222.625 246.375H201.375C196.375 246.375 189.375 249 185.625 252.125L165.875 269C157.125 276.375 143 276.375 134.5 269L114.75 252.125C111 249 103.875 246.375 99 246.375H77.125C63.875 246.375 53 235.5 53 222.25V200.875C53 196 50.5 188.875 47.375 185.25L30.5 165.375C23.25 156.75 23.25 142.75 30.5 134.125L47.375 114.25C50.5 110.5 53 103.5 53 98.625V77.5C53 64.25 63.875 53.375 77.125 53.375H98.75C103.75 53.375 110.75 50.75 114.5 47.625L134.375 30.625Z" fill="#FF0A00"/>
<path d="M150 210.875C143.125 210.875 137.5 205.25 137.5 198.375C137.5 191.5 143 185.875 150 185.875C156.875 185.875 162.5 191.5 162.5 198.375C162.5 205.25 157 210.875 150 210.875Z" fill="white"/>
<path d="M150 171.5C144.875 171.5 140.625 167.25 140.625 162.125V101.625C140.625 96.5 144.875 92.25 150 92.25C155.125 92.25 159.375 96.5 159.375 101.625V162C159.375 167.25 155.25 171.5 150 171.5Z" fill="white"/>
<path opacity="0.4" d="M134.375 30.625C143.125 23.25 157.25 23.25 165.75 30.625L185.5 47.5C189.25 50.625 196.375 53.25 201.375 53.25H222.625C235.875 53.25 246.75 64.125 246.75 77.375V98.625C246.75 103.625 249.375 110.625 252.5 114.375L269.375 134.125C276.75 142.875 276.75 157 269.375 165.5L252.5 185.25C249.375 189 246.75 196 246.75 201V222.25C246.75 235.5 235.875 246.375 222.625 246.375H201.375C196.375 246.375 189.375 249 185.625 252.125L165.875 269C157.125 276.375 143 276.375 134.5 269L114.75 252.125C111 249 103.875 246.375 99 246.375H77.125C63.875 246.375 53 235.5 53 222.25V200.875C53 196 50.5 188.875 47.375 185.25L30.5 165.375C23.25 156.75 23.25 142.75 30.5 134.125L47.375 114.25C50.5 110.5 53 103.5 53 98.625V77.5C53 64.25 63.875 53.375 77.125 53.375H98.75C103.75 53.375 110.75 50.75 114.5 47.625L134.375 30.625Z" fill="#FF0A00"/>
<path d="M150 210.875C143.125 210.875 137.5 205.25 137.5 198.375C137.5 191.5 143 185.875 150 185.875C156.875 185.875 162.5 191.5 162.5 198.375C162.5 205.25 157 210.875 150 210.875Z" fill="white"/>
<path d="M150 171.5C144.875 171.5 140.625 167.25 140.625 162.125V101.625C140.625 96.5 144.875 92.25 150 92.25C155.125 92.25 159.375 96.5 159.375 101.625V162C159.375 167.25 155.25 171.5 150 171.5Z" fill="white"/>
<path opacity="0.4" d="M134.375 30.625C143.125 23.25 157.25 23.25 165.75 30.625L185.5 47.5C189.25 50.625 196.375 53.25 201.375 53.25H222.625C235.875 53.25 246.75 64.125 246.75 77.375V98.625C246.75 103.625 249.375 110.625 252.5 114.375L269.375 134.125C276.75 142.875 276.75 157 269.375 165.5L252.5 185.25C249.375 189 246.75 196 246.75 201V222.25C246.75 235.5 235.875 246.375 222.625 246.375H201.375C196.375 246.375 189.375 249 185.625 252.125L165.875 269C157.125 276.375 143 276.375 134.5 269L114.75 252.125C111 249 103.875 246.375 99 246.375H77.125C63.875 246.375 53 235.5 53 222.25V200.875C53 196 50.5 188.875 47.375 185.25L30.5 165.375C23.25 156.75 23.25 142.75 30.5 134.125L47.375 114.25C50.5 110.5 53 103.5 53 98.625V77.5C53 64.25 63.875 53.375 77.125 53.375H98.75C103.75 53.375 110.75 50.75 114.5 47.625L134.375 30.625Z" fill="#FF0A00"/>
<path d="M150 210.875C143.125 210.875 137.5 205.25 137.5 198.375C137.5 191.5 143 185.875 150 185.875C156.875 185.875 162.5 191.5 162.5 198.375C162.5 205.25 157 210.875 150 210.875Z" fill="white"/>
<path d="M150 171.5C144.875 171.5 140.625 167.25 140.625 162.125V101.625C140.625 96.5 144.875 92.25 150 92.25C155.125 92.25 159.375 96.5 159.375 101.625V162C159.375 167.25 155.25 171.5 150 171.5Z" fill="white"/>
</svg>
