<svg width="55" height="56" viewBox="0 0 55 56" fill="none" xmlns="http://www.w3.org/2000/svg">
<path opacity="0.4" d="M24.6355 5.8097C26.2396 4.45491 28.8292 4.45491 30.3876 5.8097L34.0084 8.90962C34.6959 9.48368 36.0021 9.96589 36.9188 9.96589H40.8146C43.2438 9.96589 45.2376 11.9636 45.2376 14.3976V18.3013C45.2376 19.2197 45.7188 20.5056 46.2917 21.1945L49.3855 24.8226C50.7376 26.43 50.7376 29.0247 49.3855 30.5861L46.2917 34.2142C45.7188 34.9031 45.2376 36.189 45.2376 37.1075V41.0111C45.2376 43.4451 43.2438 45.4428 40.8146 45.4428H36.9188C36.0021 45.4428 34.7188 45.925 34.0313 46.4991L30.4105 49.599C28.8063 50.9538 26.2167 50.9538 24.6584 49.599L21.0376 46.4991C20.3501 45.925 19.0438 45.4428 18.1501 45.4428H14.1396C11.7105 45.4428 9.71672 43.4451 9.71672 41.0111V37.0845C9.71672 36.189 9.25839 34.8801 8.68547 34.2142L5.59172 30.5632C4.26256 28.9788 4.26256 26.407 5.59172 24.8226L8.68547 21.1716C9.25839 20.4827 9.71672 19.1968 9.71672 18.3013V14.4206C9.71672 11.9866 11.7105 9.98886 14.1396 9.98886H18.1042C19.0209 9.98886 20.3042 9.50665 20.9917 8.93259L24.6355 5.8097Z" fill="black"/>
<path opacity="0.4" d="M24.6355 5.86301C26.2396 4.49539 28.8292 4.49539 30.3876 5.86301L34.0084 8.99232C34.6959 9.57183 36.0021 10.0586 36.9188 10.0586H40.8146C43.2438 10.0586 45.2376 12.0753 45.2376 14.5324V18.473C45.2376 19.4002 45.7188 20.6983 46.2917 21.3937L49.3855 25.0561C50.7376 26.6787 50.7376 29.2981 49.3855 30.8743L46.2917 34.5368C45.7188 35.2322 45.2376 36.5303 45.2376 37.4575V41.3981C45.2376 43.8552 43.2438 45.8718 40.8146 45.8718H36.9188C36.0021 45.8718 34.7188 46.3586 34.0313 46.9381L30.4105 50.0674C28.8063 51.435 26.2167 51.435 24.6584 50.0674L21.0376 46.9381C20.3501 46.3586 19.0438 45.8718 18.1501 45.8718H14.1396C11.7105 45.8718 9.71672 43.8552 9.71672 41.3981V37.4343C9.71672 36.5303 9.25839 35.209 8.68547 34.5368L5.59172 30.8511C4.26256 29.2517 4.26256 26.6555 5.59172 25.0561L8.68547 21.3705C9.25839 20.6751 9.71672 19.377 9.71672 18.473V14.5555C9.71672 12.0985 11.7105 10.0818 14.1396 10.0818H18.1042C19.0209 10.0818 20.3042 9.59501 20.9917 9.0155L24.6355 5.86301Z" fill="black"/>
<path opacity="0.4" d="M24.6355 5.86301C26.2396 4.49539 28.8292 4.49539 30.3876 5.86301L34.0084 8.99232C34.6959 9.57183 36.0021 10.0586 36.9188 10.0586H40.8146C43.2438 10.0586 45.2376 12.0753 45.2376 14.5324V18.473C45.2376 19.4002 45.7188 20.6983 46.2917 21.3937L49.3855 25.0561C50.7376 26.6787 50.7376 29.2981 49.3855 30.8743L46.2917 34.5368C45.7188 35.2322 45.2376 36.5303 45.2376 37.4575V41.3981C45.2376 43.8552 43.2438 45.8718 40.8146 45.8718H36.9188C36.0021 45.8718 34.7188 46.3586 34.0313 46.9381L30.4105 50.0674C28.8063 51.435 26.2167 51.435 24.6584 50.0674L21.0376 46.9381C20.3501 46.3586 19.0438 45.8718 18.1501 45.8718H14.1396C11.7105 45.8718 9.71672 43.8552 9.71672 41.3981V37.4343C9.71672 36.5303 9.25839 35.209 8.68547 34.5368L5.59172 30.8511C4.26256 29.2517 4.26256 26.6555 5.59172 25.0561L8.68547 21.3705C9.25839 20.6751 9.71672 19.377 9.71672 18.473V14.5555C9.71672 12.0985 11.7105 10.0818 14.1396 10.0818H18.1042C19.0209 10.0818 20.3042 9.59501 20.9917 9.0155L24.6355 5.86301Z" fill="black"/>
<path opacity="0.4" d="M24.4406 5.65057C26.0448 4.29579 28.6344 4.29579 30.1927 5.65057L33.8136 8.7505C34.5011 9.32456 35.8073 9.80677 36.724 9.80677H40.6198C43.049 9.80677 45.0427 11.8045 45.0427 14.2385V18.1421C45.0427 19.0606 45.524 20.3465 46.0969 21.0354L49.1907 24.6635C50.5427 26.2708 50.5427 28.8656 49.1907 30.427L46.0969 34.0551C45.524 34.744 45.0427 36.0299 45.0427 36.9484V40.852C45.0427 43.286 43.049 45.2837 40.6198 45.2837H36.724C35.8073 45.2837 34.524 45.7659 33.8365 46.34L30.2157 49.4399C28.6115 50.7947 26.0219 50.7947 24.4636 49.4399L20.8427 46.34C20.1552 45.7659 18.849 45.2837 17.9552 45.2837H13.9448C11.5157 45.2837 9.5219 43.286 9.5219 40.852V36.9254C9.5219 36.0299 9.06357 34.721 8.49065 34.0551L5.3969 30.4041C4.06773 28.8197 4.06773 26.2479 5.3969 24.6635L8.49065 21.0124C9.06357 20.3236 9.5219 19.0377 9.5219 18.1421V14.2615C9.5219 11.8275 11.5157 9.82973 13.9448 9.82973H17.9094C18.8261 9.82973 20.1094 9.34752 20.7969 8.77346L24.4406 5.65057Z" fill="black"/>
<path opacity="0.4" d="M24.6355 5.80969C26.2396 4.45491 28.8292 4.45491 30.3876 5.80969L34.0084 8.90962C34.6959 9.48368 36.0021 9.96589 36.9188 9.96589H40.8146C43.2438 9.96589 45.2376 11.9636 45.2376 14.3976V18.3012C45.2376 19.2197 45.7188 20.5056 46.2917 21.1945L49.3855 24.8226C50.7376 26.4299 50.7376 29.0247 49.3855 30.5861L46.2917 34.2142C45.7188 34.9031 45.2376 36.189 45.2376 37.1075V41.0111C45.2376 43.4451 43.2438 45.4428 40.8146 45.4428H36.9188C36.0021 45.4428 34.7188 45.925 34.0313 46.4991L30.4105 49.599C28.8063 50.9538 26.2167 50.9538 24.6584 49.599L21.0376 46.4991C20.3501 45.925 19.0438 45.4428 18.1501 45.4428H14.1396C11.7105 45.4428 9.71672 43.4451 9.71672 41.0111V37.0845C9.71672 36.189 9.25839 34.8801 8.68547 34.2142L5.59172 30.5632C4.26256 28.9788 4.26256 26.407 5.59172 24.8226L8.68547 21.1715C9.25839 20.4827 9.71672 19.1968 9.71672 18.3012V14.4206C9.71672 11.9866 11.7105 9.98885 14.1396 9.98885H18.1042C19.0209 9.98885 20.3042 9.50664 20.9917 8.93258L24.6355 5.80969Z" fill="black"/>
<path opacity="0.4" d="M24.6355 5.86301C26.2396 4.49539 28.8292 4.49539 30.3876 5.86301L34.0084 8.99232C34.6959 9.57183 36.0021 10.0586 36.9188 10.0586H40.8146C43.2438 10.0586 45.2376 12.0753 45.2376 14.5324V18.473C45.2376 19.4002 45.7188 20.6983 46.2917 21.3937L49.3855 25.0561C50.7376 26.6787 50.7376 29.2981 49.3855 30.8743L46.2917 34.5368C45.7188 35.2322 45.2376 36.5303 45.2376 37.4575V41.3981C45.2376 43.8552 43.2438 45.8718 40.8146 45.8718H36.9188C36.0021 45.8718 34.7188 46.3586 34.0313 46.9381L30.4105 50.0674C28.8063 51.435 26.2167 51.435 24.6584 50.0674L21.0376 46.9381C20.3501 46.3586 19.0438 45.8718 18.1501 45.8718H14.1396C11.7105 45.8718 9.71672 43.8552 9.71672 41.3981V37.4343C9.71672 36.5303 9.25839 35.209 8.68547 34.5368L5.59172 30.8511C4.26256 29.2517 4.26256 26.6555 5.59172 25.0561L8.68547 21.3705C9.25839 20.6751 9.71672 19.377 9.71672 18.473V14.5555C9.71672 12.0985 11.7105 10.0818 14.1396 10.0818H18.1042C19.0209 10.0818 20.3042 9.59501 20.9917 9.0155L24.6355 5.86301Z" fill="black"/>
<path opacity="0.4" d="M24.6355 5.86301C26.2396 4.49539 28.8292 4.49539 30.3876 5.86301L34.0084 8.99232C34.6959 9.57183 36.0021 10.0586 36.9188 10.0586H40.8146C43.2438 10.0586 45.2376 12.0753 45.2376 14.5324V18.473C45.2376 19.4002 45.7188 20.6983 46.2917 21.3937L49.3855 25.0561C50.7376 26.6787 50.7376 29.2981 49.3855 30.8743L46.2917 34.5368C45.7188 35.2322 45.2376 36.5303 45.2376 37.4575V41.3981C45.2376 43.8552 43.2438 45.8718 40.8146 45.8718H36.9188C36.0021 45.8718 34.7188 46.3586 34.0313 46.9381L30.4105 50.0674C28.8063 51.435 26.2167 51.435 24.6584 50.0674L21.0376 46.9381C20.3501 46.3586 19.0438 45.8718 18.1501 45.8718H14.1396C11.7105 45.8718 9.71672 43.8552 9.71672 41.3981V37.4343C9.71672 36.5303 9.25839 35.209 8.68547 34.5368L5.59172 30.8511C4.26256 29.2517 4.26256 26.6555 5.59172 25.0561L8.68547 21.3705C9.25839 20.6751 9.71672 19.377 9.71672 18.473V14.5555C9.71672 12.0985 11.7105 10.0818 14.1396 10.0818H18.1042C19.0209 10.0818 20.3042 9.59501 20.9917 9.0155L24.6355 5.86301Z" fill="black"/>
<path opacity="0.4" d="M24.4406 5.65057C26.0448 4.29579 28.6344 4.29579 30.1927 5.65057L33.8136 8.7505C34.5011 9.32456 35.8073 9.80677 36.724 9.80677H40.6198C43.049 9.80677 45.0427 11.8045 45.0427 14.2385V18.1421C45.0427 19.0606 45.524 20.3465 46.0969 21.0354L49.1907 24.6635C50.5427 26.2708 50.5427 28.8656 49.1907 30.427L46.0969 34.0551C45.524 34.744 45.0427 36.0299 45.0427 36.9484V40.852C45.0427 43.286 43.049 45.2837 40.6198 45.2837H36.724C35.8073 45.2837 34.524 45.7659 33.8365 46.34L30.2157 49.4399C28.6115 50.7947 26.0219 50.7947 24.4636 49.4399L20.8427 46.34C20.1552 45.7659 18.849 45.2837 17.9552 45.2837H13.9448C11.5157 45.2837 9.5219 43.286 9.5219 40.852V36.9254C9.5219 36.0299 9.06357 34.721 8.49065 34.0551L5.3969 30.4041C4.06773 28.8197 4.06773 26.2479 5.3969 24.6635L8.49065 21.0124C9.06357 20.3236 9.5219 19.0377 9.5219 18.1421V14.2615C9.5219 11.8275 11.5157 9.82973 13.9448 9.82973H17.9094C18.8261 9.82973 20.1094 9.34752 20.7969 8.77346L24.4406 5.65057Z" fill="black"/>
<path d="M27.4999 39.2887C26.2395 39.2887 25.2083 38.2456 25.2083 36.9707C25.2083 35.6958 26.2166 34.6527 27.4999 34.6527C28.7603 34.6527 29.7916 35.6958 29.7916 36.9707C29.7916 38.2456 28.7833 39.2887 27.4999 39.2887Z" fill="white"/>
<path d="M27.4999 38.9215C26.2395 38.9215 25.2083 37.8882 25.2083 36.6253C25.2083 35.3623 26.2166 34.329 27.4999 34.329C28.7603 34.329 29.7916 35.3623 29.7916 36.6253C29.7916 37.8882 28.7833 38.9215 27.4999 38.9215Z" fill="white"/>
<path d="M27.5 31.987C26.5604 31.987 25.7812 31.1988 25.7812 30.2485V19.0293C25.7812 18.0789 26.5604 17.2908 27.5 17.2908C28.4396 17.2908 29.2188 18.0789 29.2188 19.0293V30.2253C29.2188 31.1988 28.4625 31.987 27.5 31.987Z" fill="white"/>
<path d="M27.5 31.6884C26.5604 31.6884 25.7812 30.9076 25.7812 29.9662V18.8524C25.7812 17.9109 26.5604 17.1302 27.5 17.1302C28.4396 17.1302 29.2188 17.9109 29.2188 18.8524V29.9432C29.2188 30.9076 28.4625 31.6884 27.5 31.6884Z" fill="white"/>
<path d="M27.4999 39.2887C26.2395 39.2887 25.2083 38.2456 25.2083 36.9707C25.2083 35.6958 26.2166 34.6527 27.4999 34.6527C28.7603 34.6527 29.7916 35.6958 29.7916 36.9707C29.7916 38.2456 28.7833 39.2887 27.4999 39.2887Z" fill="white"/>
<path d="M27.4999 38.9215C26.2395 38.9215 25.2083 37.8882 25.2083 36.6253C25.2083 35.3623 26.2166 34.329 27.4999 34.329C28.7603 34.329 29.7916 35.3623 29.7916 36.6253C29.7916 37.8882 28.7833 38.9215 27.4999 38.9215Z" fill="white"/>
<path d="M27.5 31.987C26.5604 31.987 25.7812 31.1988 25.7812 30.2485V19.0293C25.7812 18.0789 26.5604 17.2908 27.5 17.2908C28.4396 17.2908 29.2188 18.0789 29.2188 19.0293V30.2253C29.2188 31.1988 28.4625 31.987 27.5 31.987Z" fill="white"/>
<path d="M27.5 31.6884C26.5604 31.6884 25.7812 30.9076 25.7812 29.9662V18.8524C25.7812 17.9109 26.5604 17.1302 27.5 17.1302C28.4396 17.1302 29.2188 17.9109 29.2188 18.8524V29.9432C29.2188 30.9076 28.4625 31.6884 27.5 31.6884Z" fill="white"/>
</svg>
