<svg width="55" height="55" viewBox="0 0 55 55" fill="none" xmlns="http://www.w3.org/2000/svg">
<path opacity="0.4" d="M19.6167 7.65417V40.4937C18.8375 40.5167 18.0583 40.7 17.4854 41.0437L12.1 44.1146C8.34168 46.2687 5.24792 44.4812 5.24792 40.1271V17.8292C5.24792 16.3854 6.27917 14.5979 7.56251 13.8646L17.4854 8.18125C18.0583 7.86042 18.8375 7.67708 19.6167 7.65417Z" fill="#3D4754"/>
<path d="M36.0479 14.5062V47.3458C35.2459 47.3688 34.4667 47.2313 33.848 46.9333L21.8167 40.9063C21.1979 40.6083 20.4188 40.4708 19.6167 40.4938V7.65417C20.4188 7.63125 21.1979 7.76875 21.8167 8.06667L33.848 14.0937C34.4667 14.3917 35.2459 14.5292 36.0479 14.5062Z" fill="#3D4754"/>
<path opacity="0.4" d="M50.4167 14.8729V37.1708C50.4167 38.6146 49.3855 40.4021 48.1021 41.1354L38.1792 46.8187C37.6063 47.1396 36.8271 47.3229 36.048 47.3458V14.5063C36.8271 14.4833 37.6063 14.3 38.1792 13.9563L43.5646 10.8854C47.323 8.73125 50.4167 10.5188 50.4167 14.8729Z" fill="#3D4754"/>
</svg>
