<svg width="60" height="61" viewBox="0 0 60 61" fill="none" xmlns="http://www.w3.org/2000/svg">
<path d="M55 53.8851H5C3.975 53.8851 3.125 54.7448 3.125 55.7816C3.125 56.8184 3.975 57.6782 5 57.6782H55C56.025 57.6782 56.875 56.8184 56.875 55.7816C56.875 54.7448 56.025 53.8851 55 53.8851Z" fill="#FC5750"/>
<path opacity="0.4" d="M42.5 5.2069H17.5C10 5.2069 7.5 9.73334 7.5 15.3218V55.7816H52.5V15.3218C52.5 9.73334 50 5.2069 42.5 5.2069Z" fill="#FC5750"/>
<path d="M35.15 38.0805H24.8249C23.5499 38.0805 22.475 39.1425 22.475 40.4575V55.7816H37.475V40.4575C37.5 39.1425 36.45 38.0805 35.15 38.0805Z" fill="#FC5750"/>
<path d="M36.25 19.7471H31.875V15.3218C31.875 14.2851 31.025 13.4253 30 13.4253C28.975 13.4253 28.125 14.2851 28.125 15.3218V19.7471H23.75C22.725 19.7471 21.875 20.6069 21.875 21.6437C21.875 22.6805 22.725 23.5402 23.75 23.5402H28.125V27.9655C28.125 29.0023 28.975 29.8621 30 29.8621C31.025 29.8621 31.875 29.0023 31.875 27.9655V23.5402H36.25C37.275 23.5402 38.125 22.6805 38.125 21.6437C38.125 20.6069 37.275 19.7471 36.25 19.7471Z" fill="#FC5750"/>
</svg>
