<svg width="35" height="35" viewBox="0 0 35 35" fill="none" xmlns="http://www.w3.org/2000/svg">
<path opacity="0.4" d="M11.1562 30.4938C11.1124 30.4938 11.0541 30.523 11.0103 30.523C8.18115 29.123 5.87699 26.8042 4.4624 23.9751C4.4624 23.9313 4.49157 23.873 4.49157 23.8292C6.27074 24.3542 8.10824 24.748 9.93115 25.0542C10.252 26.8917 10.6312 28.7146 11.1562 30.4938Z" fill="#50D3FC"/>
<path opacity="0.4" d="M30.5376 23.9896C29.0938 26.8917 26.6876 29.2396 23.7563 30.6542C24.3105 28.8021 24.7772 26.9355 25.0834 25.0542C26.9209 24.748 28.7293 24.3542 30.5084 23.8292C30.4938 23.8876 30.5376 23.9459 30.5376 23.9896Z" fill="#50D3FC"/>
<path opacity="0.4" d="M30.6543 11.2437C28.8168 10.6896 26.9647 10.2375 25.0834 9.91666C24.7772 8.03541 24.3251 6.16874 23.7563 4.34583C26.7751 5.78958 29.2105 8.22499 30.6543 11.2437Z" fill="#50D3FC"/>
<path opacity="0.4" d="M11.1564 4.50627C10.6314 6.28544 10.2522 8.09377 9.94595 9.93127C8.0647 10.2229 6.19803 10.6896 4.34595 11.2438C5.76053 8.31252 8.10845 5.90627 11.0105 4.46252C11.0543 4.46252 11.1126 4.50627 11.1564 4.50627Z" fill="#50D3FC"/>
<path d="M22.5896 9.61038C19.2062 9.23121 15.7937 9.23121 12.4104 9.61038C12.775 7.61246 13.2416 5.61454 13.8979 3.68954C13.9271 3.57288 13.9125 3.48538 13.9271 3.36871C15.0792 3.09163 16.2604 2.91663 17.5 2.91663C18.725 2.91663 19.9208 3.09163 21.0583 3.36871C21.0729 3.48538 21.0729 3.57288 21.1021 3.68954C21.7583 5.62913 22.225 7.61246 22.5896 9.61038Z" fill="#50D3FC"/>
<path d="M9.6105 22.5896C7.598 22.225 5.61466 21.7583 3.68966 21.1021C3.573 21.0729 3.4855 21.0875 3.36883 21.0729C3.09175 19.9208 2.91675 18.7396 2.91675 17.5C2.91675 16.275 3.09175 15.0792 3.36883 13.9417C3.4855 13.9271 3.573 13.9271 3.68966 13.8979C5.62925 13.2562 7.598 12.775 9.6105 12.4104C9.24591 15.7937 9.24591 19.2062 9.6105 22.5896Z" fill="#50D3FC"/>
<path d="M32.0834 17.5C32.0834 18.7396 31.9084 19.9208 31.6313 21.0729C31.5146 21.0875 31.4271 21.0729 31.3105 21.1021C29.3709 21.7437 27.3876 22.225 25.3896 22.5896C25.7688 19.2062 25.7688 15.7937 25.3896 12.4104C27.3876 12.775 29.3855 13.2416 31.3105 13.8979C31.4271 13.9271 31.5146 13.9417 31.6313 13.9417C31.9084 15.0937 32.0834 16.275 32.0834 17.5Z" fill="#50D3FC"/>
<path d="M22.5896 25.3895C22.225 27.402 21.7583 29.3854 21.1021 31.3104C21.0729 31.427 21.0729 31.5145 21.0583 31.6312C19.9208 31.9083 18.725 32.0833 17.5 32.0833C16.2604 32.0833 15.0792 31.9083 13.9271 31.6312C13.9125 31.5145 13.9271 31.427 13.8979 31.3104C13.2562 29.3708 12.775 27.402 12.4104 25.3895C14.1021 25.5791 15.7937 25.7104 17.5 25.7104C19.2062 25.7104 20.9125 25.5791 22.5896 25.3895Z" fill="#50D3FC"/>
<path d="M22.9883 22.9881C19.3408 23.4483 15.6593 23.4483 12.0119 22.9881C11.5517 19.3407 11.5517 15.6592 12.0119 12.0118C15.6593 11.5516 19.3408 11.5516 22.9883 12.0118C23.4485 15.6592 23.4485 19.3407 22.9883 22.9881Z" fill="#50D3FC"/>
</svg>
