<svg width="35" height="35" viewBox="0 0 35 35" fill="none" xmlns="http://www.w3.org/2000/svg">
<path opacity="0.4" d="M17.5 7.72916V31.1062C17.252 31.1062 16.9895 31.0625 16.7854 30.9458L16.727 30.9167C13.927 29.3854 9.04163 27.7812 5.87704 27.3583L5.45413 27.3C4.05413 27.125 2.91663 25.8125 2.91663 24.4125V6.79583C2.91663 5.06041 4.33121 3.74791 6.06663 3.89375C9.12913 4.14166 13.7666 5.6875 16.3625 7.30625L16.727 7.525C16.9458 7.65625 17.2229 7.72916 17.5 7.72916Z" fill="#A6A6A6"/>
<path d="M32.0833 6.81042V24.4125C32.0833 25.8125 30.9458 27.125 29.5458 27.3L29.0646 27.3583C25.8854 27.7813 20.9854 29.4 18.1854 30.9458C17.9958 31.0625 17.7625 31.1063 17.5 31.1063V7.72917C17.7771 7.72917 18.0542 7.65625 18.2729 7.525L18.5208 7.36459C21.1167 5.73125 25.7688 4.17083 28.8313 3.90833H28.9187C30.6542 3.7625 32.0833 5.06042 32.0833 6.81042Z" fill="#A6A6A6"/>
<path d="M11.3021 13.475H8.02087C7.42296 13.475 6.92712 12.9792 6.92712 12.3813C6.92712 11.7833 7.42296 11.2875 8.02087 11.2875H11.3021C11.9 11.2875 12.3959 11.7833 12.3959 12.3813C12.3959 12.9792 11.9 13.475 11.3021 13.475Z" fill="#A6A6A6"/>
<path d="M12.3959 17.85H8.02087C7.42296 17.85 6.92712 17.3542 6.92712 16.7563C6.92712 16.1583 7.42296 15.6625 8.02087 15.6625H12.3959C12.9938 15.6625 13.4896 16.1583 13.4896 16.7563C13.4896 17.3542 12.9938 17.85 12.3959 17.85Z" fill="#A6A6A6"/>
</svg>
