<svg width="35" height="35" viewBox="0 0 35 35" fill="none" xmlns="http://www.w3.org/2000/svg">
<path opacity="0.4" d="M12.4833 4.87083V25.7688C11.9875 25.7833 11.4917 25.9 11.1271 26.1188L7.70002 28.0729C5.30835 29.4438 3.3396 28.3063 3.3396 25.5354V11.3458C3.3396 10.4271 3.99585 9.28958 4.81252 8.82292L11.1271 5.20625C11.4917 5.00208 11.9875 4.88542 12.4833 4.87083Z" fill="#F7C84C"/>
<path d="M22.9395 9.23126V30.1292C22.4291 30.1438 21.9333 30.0563 21.5395 29.8667L13.8833 26.0313C13.4895 25.8417 12.9937 25.7542 12.4833 25.7688V4.87084C12.9937 4.85626 13.4895 4.94376 13.8833 5.13334L21.5395 8.96876C21.9333 9.15834 22.4291 9.24584 22.9395 9.23126Z" fill="#F7C84C"/>
<path opacity="0.4" d="M32.0833 9.46458V23.6542C32.0833 24.5729 31.4271 25.7104 30.6104 26.1771L24.2958 29.7937C23.9312 29.9979 23.4354 30.1146 22.9396 30.1292V9.23125C23.4354 9.21666 23.9312 9.1 24.2958 8.88125L27.7229 6.92708C30.1146 5.55625 32.0833 6.69375 32.0833 9.46458Z" fill="#F7C84C"/>
</svg>
