<svg width="35" height="35" viewBox="0 0 35 35" fill="none" xmlns="http://www.w3.org/2000/svg">
<path opacity="0.4" d="M15.6771 3.57292C16.6979 2.71251 18.3458 2.71251 19.3375 3.57292L21.6417 5.54167C22.0792 5.90626 22.9104 6.21251 23.4937 6.21251H25.9729C27.5187 6.21251 28.7875 7.48126 28.7875 9.02709V11.5063C28.7875 12.0896 29.0937 12.9063 29.4583 13.3438L31.4271 15.6479C32.2875 16.6688 32.2875 18.3167 31.4271 19.3083L29.4583 21.6125C29.0937 22.05 28.7875 22.8667 28.7875 23.45V25.9292C28.7875 27.475 27.5187 28.7438 25.9729 28.7438H23.4937C22.9104 28.7438 22.0937 29.05 21.6562 29.4146L19.3521 31.3833C18.3312 32.2438 16.6833 32.2438 15.6917 31.3833L13.3875 29.4146C12.95 29.05 12.1187 28.7438 11.55 28.7438H8.99791C7.45208 28.7438 6.18332 27.475 6.18332 25.9292V23.4354C6.18332 22.8667 5.89166 22.0354 5.52708 21.6125L3.55833 19.2938C2.71249 18.2875 2.71249 16.6542 3.55833 15.6479L5.52708 13.3292C5.89166 12.8917 6.18332 12.075 6.18332 11.5063V9.04167C6.18332 7.49584 7.45208 6.22709 8.99791 6.22709H11.5208C12.1042 6.22709 12.9208 5.92084 13.3583 5.55626L15.6771 3.57292Z" fill="#FC5750"/>
<path opacity="0.4" d="M15.6771 3.57292C16.6979 2.71251 18.3458 2.71251 19.3375 3.57292L21.6417 5.54167C22.0792 5.90626 22.9104 6.21251 23.4937 6.21251H25.9729C27.5187 6.21251 28.7875 7.48126 28.7875 9.02709V11.5063C28.7875 12.0896 29.0937 12.9063 29.4583 13.3438L31.4271 15.6479C32.2875 16.6688 32.2875 18.3167 31.4271 19.3083L29.4583 21.6125C29.0937 22.05 28.7875 22.8667 28.7875 23.45V25.9292C28.7875 27.475 27.5187 28.7438 25.9729 28.7438H23.4937C22.9104 28.7438 22.0937 29.05 21.6562 29.4146L19.3521 31.3833C18.3312 32.2438 16.6833 32.2438 15.6917 31.3833L13.3875 29.4146C12.95 29.05 12.1187 28.7438 11.55 28.7438H8.99791C7.45208 28.7438 6.18332 27.475 6.18332 25.9292V23.4354C6.18332 22.8667 5.89166 22.0354 5.52708 21.6125L3.55833 19.2938C2.71249 18.2875 2.71249 16.6542 3.55833 15.6479L5.52708 13.3292C5.89166 12.8917 6.18332 12.075 6.18332 11.5063V9.04167C6.18332 7.49584 7.45208 6.22709 8.99791 6.22709H11.5208C12.1042 6.22709 12.9208 5.92084 13.3583 5.55626L15.6771 3.57292Z" fill="#FC5750"/>
<path d="M17.5 24.6021C16.6979 24.6021 16.0416 23.9458 16.0416 23.1438C16.0416 22.3417 16.6833 21.6854 17.5 21.6854C18.302 21.6854 18.9583 22.3417 18.9583 23.1438C18.9583 23.9458 18.3166 24.6021 17.5 24.6021Z" fill="white"/>
<path d="M17.5 20.0083C16.9021 20.0083 16.4062 19.5125 16.4062 18.9146V11.8562C16.4062 11.2583 16.9021 10.7625 17.5 10.7625C18.0979 10.7625 18.5938 11.2583 18.5938 11.8562V18.9C18.5938 19.5125 18.1125 20.0083 17.5 20.0083Z" fill="white"/>
</svg>
