<svg width="40" height="40" viewBox="0 0 40 40" fill="none" xmlns="http://www.w3.org/2000/svg">
<path opacity="0.4" d="M26.9833 3.33337H13.0333C6.94992 3.33337 3.33325 6.95004 3.33325 13.0167V26.9667C3.33325 33.0334 6.94992 36.65 13.0166 36.65H26.9666C33.0333 36.65 36.6499 33.0334 36.6499 26.9667V13.0167C36.6666 6.95004 33.0499 3.33337 26.9833 3.33337Z" fill="#F7C84C"/>
<path d="M28.9166 15.0834L25.0166 27.65C24.0833 30.6333 19.9 30.6833 18.9166 27.7167L17.75 24.2667C17.4333 23.3167 16.6833 22.55 15.7333 22.25L12.2666 21.0834C9.31662 20.1 9.36662 15.8833 12.35 14.9833L24.9166 11.0667C27.3833 10.3167 29.7 12.6334 28.9166 15.0834Z" fill="#F7C84C"/>
</svg>
