<svg width="261" height="136" viewBox="0 0 261 136" fill="none" xmlns="http://www.w3.org/2000/svg">
<rect width="261" height="136" rx="25" fill="#FC5750"/>
<path d="M89 80.592C89 70.416 82.472 64.848 70.376 62.448L58.568 60.048C53.576 59.088 49.256 57.072 49.256 52.368C49.256 47.568 53.288 43.536 60.392 43.536C67.688 43.536 72.68 48.432 73.16 55.632H87.944C86.984 41.232 75.656 32.208 60.2 32.208C45.32 32.208 34.472 41.04 34.472 53.328C34.472 64.752 42.536 70.416 53 72.432L64.328 74.64C70.184 75.792 73.544 78.384 73.544 82.704C73.544 88.272 68.264 91.536 60.872 91.536C51.944 91.536 47.048 86.64 46.664 79.056H31.88C32.936 93.648 43.784 102.96 61.16 102.96C78.44 102.96 89 93.744 89 80.592ZM129.085 103.44C149.053 103.44 164.509 88.08 164.509 67.44C164.509 46.8 149.053 31.632 129.085 31.632C109.213 31.632 93.8533 46.8 93.8533 67.44C93.8533 88.08 109.213 103.44 129.085 103.44ZM129.085 90.384C116.509 90.384 108.829 80.112 108.829 67.44C108.829 54.768 116.509 44.688 129.085 44.688C141.757 44.688 149.437 54.768 149.437 67.44C149.437 80.112 141.757 90.384 129.085 90.384ZM227.469 80.592C227.469 70.416 220.941 64.848 208.845 62.448L197.037 60.048C192.045 59.088 187.725 57.072 187.725 52.368C187.725 47.568 191.757 43.536 198.861 43.536C206.157 43.536 211.149 48.432 211.629 55.632H226.413C225.453 41.232 214.125 32.208 198.669 32.208C183.789 32.208 172.941 41.04 172.941 53.328C172.941 64.752 181.005 70.416 191.469 72.432L202.797 74.64C208.653 75.792 212.013 78.384 212.013 82.704C212.013 88.272 206.733 91.536 199.341 91.536C190.413 91.536 185.517 86.64 185.133 79.056H170.349C171.405 93.648 182.253 102.96 199.629 102.96C216.909 102.96 227.469 93.744 227.469 80.592Z" fill="white"/>
</svg>
