<svg width="51" height="51" viewBox="0 0 51 51" fill="none" xmlns="http://www.w3.org/2000/svg">
<path opacity="0.4" d="M16.0305 44.0568C15.968 44.0568 15.8847 44.0984 15.8222 44.0984C11.7805 42.0984 8.48885 38.7859 6.46802 34.7443C6.46802 34.6818 6.50968 34.5984 6.50968 34.5359C9.05135 35.2859 11.6764 35.8484 14.2805 36.2859C14.7389 38.9109 15.2805 41.5151 16.0305 44.0568Z" fill="black"/>
<path opacity="0.4" d="M43.718 34.7651C41.6555 38.9109 38.218 42.2651 34.0305 44.2859C34.8222 41.6401 35.4889 38.9734 35.9264 36.2859C38.5514 35.8484 41.1347 35.2859 43.6763 34.5359C43.6555 34.6193 43.718 34.7026 43.718 34.7651Z" fill="black"/>
<path opacity="0.4" d="M43.8847 16.5567C41.2597 15.7651 38.6139 15.1192 35.9264 14.6609C35.4889 11.9734 34.843 9.30674 34.0305 6.70258C38.343 8.76508 41.8222 12.2442 43.8847 16.5567Z" fill="black"/>
<path opacity="0.4" d="M16.0306 6.93175C15.2806 9.47341 14.7389 12.0567 14.3014 14.6817C11.6139 15.0984 8.94722 15.7651 6.30139 16.5567C8.32222 12.3692 11.6764 8.93175 15.8222 6.86925C15.8847 6.86925 15.9681 6.93175 16.0306 6.93175Z" fill="black"/>
<path d="M32.3638 14.2234C27.5305 13.6818 22.6555 13.6818 17.8221 14.2234C18.343 11.3693 19.0096 8.51509 19.9471 5.76509C19.9888 5.59842 19.968 5.47342 19.9888 5.30675C21.6346 4.91092 23.3221 4.66092 25.093 4.66092C26.843 4.66092 28.5513 4.91092 30.1763 5.30675C30.1971 5.47342 30.1971 5.59842 30.2388 5.76509C31.1763 8.53592 31.843 11.3693 32.3638 14.2234Z" fill="black"/>
<path d="M13.8221 32.7651C10.9471 32.2442 8.11381 31.5776 5.36381 30.6401C5.19714 30.5984 5.07214 30.6192 4.90548 30.5984C4.50964 28.9526 4.25964 27.2651 4.25964 25.4943C4.25964 23.7443 4.50964 22.0359 4.90548 20.4109C5.07214 20.3901 5.19714 20.3901 5.36381 20.3484C8.13464 19.4318 10.9471 18.7443 13.8221 18.2234C13.3013 23.0568 13.3013 27.9318 13.8221 32.7651Z" fill="black"/>
<path d="M45.9264 25.4943C45.9264 27.2651 45.6764 28.9526 45.2806 30.5984C45.1139 30.6192 44.9889 30.5984 44.8222 30.6401C42.0514 31.5568 39.2181 32.2442 36.3639 32.7651C36.9056 27.9318 36.9056 23.0568 36.3639 18.2234C39.2181 18.7443 42.0722 19.4109 44.8222 20.3484C44.9889 20.3901 45.1139 20.4109 45.2806 20.4109C45.6764 22.0568 45.9264 23.7443 45.9264 25.4943Z" fill="black"/>
<path d="M32.3638 36.7651C31.843 39.6401 31.1763 42.4734 30.2388 45.2234C30.1971 45.3901 30.1971 45.5151 30.1763 45.6817C28.5513 46.0776 26.843 46.3276 25.093 46.3276C23.3221 46.3276 21.6346 46.0776 19.9888 45.6817C19.968 45.5151 19.9888 45.3901 19.9471 45.2234C19.0305 42.4526 18.343 39.6401 17.8221 36.7651C20.2388 37.0359 22.6555 37.2234 25.093 37.2234C27.5305 37.2234 29.968 37.0359 32.3638 36.7651Z" fill="black"/>
<path d="M32.9332 33.3345C27.7226 33.9919 22.4633 33.9919 17.2527 33.3345C16.5953 28.1239 16.5953 22.8646 17.2527 17.654C22.4633 16.9966 27.7226 16.9966 32.9332 17.654C33.5907 22.8646 33.5907 28.1239 32.9332 33.3345Z" fill="black"/>
</svg>