<svg width="60" height="61" viewBox="0 0 60 61" fill="none" xmlns="http://www.w3.org/2000/svg">
<path opacity="0.7" d="M51.425 27.9908C49.525 25.6897 47.025 24.1471 44.175 23.5149C43.55 20.6069 42.4 18.0782 40.775 16.0046C40.725 15.9287 40.675 15.8529 40.625 15.8023C35.15 9.10115 26.175 9.12644 20.125 12.5908C14.95 15.5747 10.55 21.8713 12.85 30.8989C7.54998 32.2138 5.09998 36.892 5.09998 41.1149C5.09998 45.8437 8.14998 51.1793 14.975 51.6598H40.725C40.75 51.6598 40.8 51.6598 40.825 51.6598C44.375 51.6598 47.75 50.3448 50.35 47.9172C56.65 42.354 55.825 33.2253 51.425 27.9908Z" fill="white"/>
<path d="M53.175 22.3012C53.175 24.8805 52 27.2069 50.1 28.7241C48.725 29.8621 46.95 30.5448 45.025 30.5448C40.55 30.5448 36.9 26.8529 36.9 22.3264C36.9 20.0759 37.8 18.0276 39.3 16.5356V16.5103C40.775 15.0184 42.8 14.0828 45.025 14.0828C49.525 14.0828 53.175 17.7747 53.175 22.3012Z" fill="#FFB900"/>
</svg>
